# Blender v3.0.0 OBJ File: ''
# www.blender.org
mtllib Cheshka_figure.mtl
o Cylinder_Cylinder.002
v 0.000000 0.888014 -0.380146
v 0.000000 1.410929 -0.274871
v 0.127738 1.410929 -0.243386
v 0.176663 0.888014 -0.336603
v 0.226214 1.410929 -0.156144
v 0.312854 0.888014 -0.215947
v 0.272867 1.410929 -0.033131
v 0.377374 0.888014 -0.045821
v 0.257009 1.410929 0.097471
v 0.355443 0.888014 0.134802
v 0.182273 1.410929 0.205745
v 0.252084 0.888014 0.284544
v 0.065780 1.410929 0.266884
v 0.090975 0.888014 0.369100
v -0.065780 1.410929 0.266884
v -0.090975 0.888014 0.369100
v -0.182273 1.410929 0.205745
v -0.252084 0.888014 0.284544
v -0.257009 1.410929 0.097471
v -0.355443 0.888014 0.134802
v -0.272867 1.410929 -0.033131
v -0.377374 0.888014 -0.045821
v -0.226214 1.410929 -0.156144
v -0.312854 0.888014 -0.215947
v -0.127738 1.410929 -0.243386
v -0.176663 0.888014 -0.336603
v 0.000000 -0.066303 -0.738616
v 0.343252 -0.066303 -0.654012
v 0.607869 -0.066303 -0.419582
v 0.733231 -0.066303 -0.089030
v 0.690618 -0.066303 0.261917
v 0.489793 -0.066303 0.552862
v 0.176763 -0.066303 0.717153
v -0.176763 -0.066303 0.717153
v -0.489793 -0.066303 0.552862
v -0.690618 -0.066303 0.261917
v -0.733231 -0.066303 -0.089030
v -0.607869 -0.066303 -0.419582
v -0.343252 -0.066303 -0.654012
v -0.343252 0.323601 -0.654012
v 0.000000 0.323601 -0.738616
v -0.607869 0.323601 -0.419582
v -0.733231 0.323601 -0.089030
v -0.690618 0.323601 0.261917
v -0.489793 0.323601 0.552862
v -0.176763 0.323601 0.717153
v 0.176763 0.323601 0.717153
v 0.489793 0.323601 0.552862
v 0.690618 0.323601 0.261917
v 0.733231 0.323601 -0.089030
v 0.607869 0.323601 -0.419582
v 0.343252 0.323601 -0.654012
v -0.000000 1.511982 -0.000000
v 0.451605 1.856973 0.328106
v -0.172494 1.856973 0.530892
v -0.558214 1.856976 -0.000000
v -0.172494 1.856973 -0.530892
v 0.451605 1.856973 -0.328107
v 0.172494 2.415195 0.530892
v -0.451605 2.415195 0.328107
v -0.451605 2.415195 -0.328107
v 0.172494 2.415195 -0.530892
v 0.558214 2.415193 -0.000000
v -0.000000 2.760187 -0.000000
v -0.101389 1.605189 0.312048
v 0.265445 1.605189 0.192855
v 0.164057 1.807970 0.504906
v 0.530892 1.807971 -0.000000
v 0.265445 1.605189 -0.192855
v -0.328109 1.605190 -0.000000
v -0.429501 1.807971 0.312049
v -0.101389 1.605188 -0.312048
v -0.429501 1.807971 -0.312049
v 0.164057 1.807970 -0.504906
v 0.593558 2.136084 0.192856
v 0.593558 2.136084 -0.192856
v -0.000000 2.136084 0.624103
v 0.366839 2.136084 0.504909
v -0.593558 2.136084 0.192856
v -0.366839 2.136084 0.504909
v -0.366839 2.136084 -0.504909
v -0.593558 2.136084 -0.192856
v 0.366839 2.136084 -0.504909
v -0.000000 2.136084 -0.624103
v 0.429501 2.464198 0.312049
v -0.164057 2.464199 0.504906
v -0.530892 2.464197 -0.000000
v -0.164057 2.464198 -0.504906
v 0.429501 2.464197 -0.312049
v 0.101389 2.666980 0.312048
v 0.328109 2.666978 -0.000000
v -0.265445 2.666980 0.192855
v -0.265445 2.666980 -0.192855
v 0.101389 2.666980 -0.312048
vt 0.181819 0.000000
vt 0.227273 0.078731
vt 0.136365 0.078731
vt 0.272728 0.157461
vt 0.318182 0.078731
vt 0.363637 0.157461
vt 0.909091 0.000000
vt 0.954545 0.078731
vt 0.863636 0.078731
vt 0.727273 0.000000
vt 0.772727 0.078731
vt 0.681818 0.078731
vt 0.545455 0.000000
vt 0.590909 0.078731
vt 0.500000 0.078731
vt 0.318182 0.236191
vt 0.090910 0.157461
vt 0.181819 0.157461
vt 0.136365 0.236191
vt 0.818182 0.157461
vt 0.909091 0.157461
vt 0.863636 0.236191
vt 0.636364 0.157461
vt 0.727273 0.157461
vt 0.681818 0.236191
vt 0.454546 0.157461
vt 0.545455 0.157461
vt 0.500000 0.236191
vt 0.227273 0.236191
vt 0.045455 0.236191
vt 0.772727 0.236191
vt 0.590909 0.236191
vt 0.409092 0.236191
vt 0.181819 0.314921
vt 0.272728 0.314921
vt 0.227273 0.393651
vt 0.000000 0.314921
vt 0.090910 0.314921
vt 0.045455 0.393651
vt 0.727273 0.314921
vt 0.818182 0.314921
vt 0.772727 0.393651
vt 0.545455 0.314921
vt 0.636364 0.314921
vt 0.590909 0.393651
vt 0.363637 0.314921
vt 0.454546 0.314921
vt 0.409092 0.393651
vt 0.500000 0.393651
vt 0.454546 0.472382
vt 0.681818 0.393651
vt 0.636364 0.472382
vt 0.863636 0.393651
vt 0.818182 0.472382
vt 0.909091 0.314921
vt 0.136365 0.393651
vt 0.090910 0.472382
vt 0.318182 0.393651
vt 0.272728 0.472382
vt 0.954545 0.236191
vt 1.000000 0.157461
vt 0.409092 0.078731
vt 0.363637 0.000000
vt 1.000000 0.823009
vt 1.000000 1.000000
vt 0.923077 1.000000
vt 0.923077 0.823008
vt 0.846154 1.000000
vt 0.846154 0.823009
vt 0.769231 1.000000
vt 0.769231 0.823009
vt 0.692308 1.000000
vt 0.692308 0.823009
vt 0.615385 1.000000
vt 0.615385 0.823009
vt 0.538462 1.000000
vt 0.538462 0.823009
vt 0.461538 1.000000
vt 0.461538 0.823009
vt 0.384615 1.000000
vt 0.384615 0.823009
vt 0.307692 1.000000
vt 0.307692 0.823009
vt 0.230769 1.000000
vt 0.230769 0.823009
vt 0.153846 1.000000
vt 0.153846 0.823009
vt 0.076923 1.000000
vt 0.076923 0.823009
vt 0.000000 1.000000
vt 0.000000 0.823009
vt 0.750000 0.490000
vt 0.861534 0.462509
vt 0.947516 0.386336
vt 0.988250 0.278929
vt 0.974404 0.164895
vt 0.909149 0.070357
vt 0.807436 0.016974
vt 0.692564 0.016974
vt 0.590851 0.070357
vt 0.525596 0.164895
vt 0.511750 0.278929
vt 0.552484 0.386335
vt 0.638466 0.462509
vt 0.076923 0.500000
vt 0.076923 0.631971
vt 0.000000 0.631971
vt 0.000000 0.500000
vt 0.153846 0.500000
vt 0.153846 0.631971
vt 0.230769 0.500000
vt 0.230769 0.631971
vt 0.307692 0.500000
vt 0.307692 0.631971
vt 0.384615 0.500000
vt 0.384615 0.631971
vt 0.461538 0.500000
vt 0.461538 0.631971
vt 0.538462 0.500000
vt 0.538462 0.631971
vt 0.615385 0.500000
vt 0.615385 0.631971
vt 0.692308 0.500000
vt 0.692308 0.631971
vt 0.769231 0.500000
vt 0.769231 0.631971
vt 0.846154 0.500000
vt 0.846154 0.631971
vt 0.923077 0.500000
vt 0.923077 0.631971
vt 1.000000 0.500000
vt 1.000000 0.631971
vt 0.052484 0.386335
vt 0.011750 0.278929
vt 0.025596 0.164895
vt 0.090851 0.070357
vt 0.192564 0.016974
vt 0.307436 0.016974
vt 0.409149 0.070357
vt 0.474404 0.164895
vt 0.488250 0.278929
vt 0.447516 0.386336
vt 0.361534 0.462509
vt 0.250000 0.490000
vt 0.138466 0.462509
vn 0.1024 -0.9435 0.3151
vn 0.7002 -0.6617 0.2680
vn -0.2680 -0.9435 0.1947
vn -0.2680 -0.9435 -0.1947
vn 0.1024 -0.9435 -0.3151
vn 0.9050 -0.3304 0.2680
vn 0.0247 -0.3304 0.9435
vn -0.8897 -0.3304 0.3151
vn -0.5746 -0.3304 -0.7488
vn 0.5346 -0.3304 -0.7779
vn 0.8026 -0.1256 0.5831
vn -0.3066 -0.1256 0.9435
vn -0.9921 -0.1256 0.0000
vn -0.3066 -0.1256 -0.9435
vn 0.8026 -0.1256 -0.5831
vn 0.4089 0.6617 0.6284
vn -0.4713 0.6617 0.5831
vn -0.7002 0.6617 -0.2680
vn 0.0385 0.6617 -0.7488
vn 0.7240 0.6617 -0.1947
vn 0.2680 0.9435 -0.1947
vn 0.4911 0.7947 -0.3568
vn 0.4089 0.6617 -0.6284
vn -0.1024 0.9435 -0.3151
vn -0.1876 0.7947 -0.5773
vn -0.4713 0.6617 -0.5831
vn -0.3313 0.9435 0.0000
vn -0.6071 0.7947 0.0000
vn -0.7002 0.6617 0.2680
vn -0.1024 0.9435 0.3151
vn -0.1876 0.7947 0.5773
vn 0.0385 0.6617 0.7488
vn 0.2680 0.9435 0.1947
vn 0.4911 0.7947 0.3568
vn 0.7240 0.6617 0.1947
vn 0.8897 0.3304 -0.3151
vn 0.7947 0.1876 -0.5773
vn 0.5746 0.3304 -0.7488
vn -0.0247 0.3304 -0.9435
vn -0.3035 0.1876 -0.9342
vn -0.5346 0.3304 -0.7779
vn -0.9050 0.3304 -0.2680
vn -0.9822 0.1876 0.0000
vn -0.9050 0.3304 0.2680
vn -0.5346 0.3304 0.7779
vn -0.3035 0.1876 0.9342
vn -0.0247 0.3304 0.9435
vn 0.5746 0.3304 0.7488
vn 0.7947 0.1876 0.5773
vn 0.8897 0.3304 0.3151
vn 0.3066 0.1256 -0.9435
vn 0.3035 -0.1876 -0.9342
vn 0.0247 -0.3304 -0.9435
vn -0.8026 0.1256 -0.5831
vn -0.7947 -0.1876 -0.5773
vn -0.8897 -0.3304 -0.3151
vn -0.8026 0.1256 0.5831
vn -0.7947 -0.1876 0.5773
vn -0.5746 -0.3304 0.7488
vn 0.3066 0.1256 0.9435
vn 0.3035 -0.1876 0.9342
vn 0.5346 -0.3304 0.7779
vn 0.9921 0.1256 0.0000
vn 0.9822 -0.1876 0.0000
vn 0.9050 -0.3304 -0.2680
vn 0.4713 -0.6617 -0.5831
vn 0.1876 -0.7947 -0.5773
vn -0.0385 -0.6617 -0.7488
vn -0.4089 -0.6617 -0.6284
vn -0.4911 -0.7947 -0.3568
vn -0.7240 -0.6617 -0.1947
vn -0.7240 -0.6617 0.1947
vn -0.4911 -0.7947 0.3568
vn -0.4089 -0.6617 0.6284
vn 0.7002 -0.6617 -0.2680
vn 0.6071 -0.7947 0.0000
vn 0.3313 -0.9435 0.0000
vn -0.0385 -0.6617 0.7488
vn 0.1876 -0.7947 0.5773
vn 0.4713 -0.6617 0.5831
vn 0.2349 0.1918 -0.9529
vn 0.6508 0.1918 -0.7346
vn 0.9176 0.1918 -0.3480
vn 0.9743 0.1918 0.1183
vn 0.8077 0.1918 0.5575
vn 0.4561 0.1918 0.8690
vn 0.0000 0.1918 0.9814
vn -0.4561 0.1918 0.8690
vn -0.8077 0.1918 0.5575
vn -0.9743 0.1918 0.1183
vn -0.9176 0.1918 -0.3480
vn -0.6508 0.1918 -0.7346
vn -0.2349 0.1918 -0.9529
vn 0.0000 -1.0000 -0.0000
vn -0.2393 0.0000 -0.9709
vn -0.6631 0.0000 -0.7485
vn -0.9350 0.0000 -0.3546
vn -0.9927 0.0000 0.1205
vn -0.8230 -0.0000 0.5681
vn -0.4647 -0.0000 0.8855
vn 0.0000 -0.0000 1.0000
vn 0.4647 -0.0000 0.8855
vn 0.8230 -0.0000 0.5681
vn 0.9927 -0.0000 0.1205
vn 0.9350 0.0000 -0.3546
vn 0.6631 0.0000 -0.7485
vn 0.2393 0.0000 -0.9709
vn -0.2037 0.5249 -0.8264
vn -0.5644 0.5249 -0.6371
vn -0.7959 0.5249 -0.3018
vn -0.8450 0.5249 0.1026
vn -0.7005 0.5249 0.4835
vn -0.3956 0.5249 0.7537
vn 0.0000 0.5249 0.8512
vn 0.3956 0.5249 0.7537
vn 0.7005 0.5249 0.4835
vn 0.8450 0.5249 0.1026
vn 0.7959 0.5249 -0.3018
vn 0.5644 0.5249 -0.6371
vn 0.2037 0.5249 -0.8264
vn -0.9060 0.2472 -0.3436
vn -0.9619 0.2471 0.1168
vn -0.7975 0.2471 0.5505
vn -0.4503 0.2472 0.8580
vn 0.1976 0.2475 0.9485
vn 0.7973 0.2478 0.5503
vn 0.9617 0.2480 0.1168
vn 0.9058 0.2481 -0.3435
vn 0.6420 0.2503 -0.7247
vn 0.2318 0.2479 -0.9406
vn 0.2320 0.2478 -0.9406
vn -0.6425 0.2474 -0.7252
usemtl None.001
s off
f 53/1/1 66/2/1 65/3/1
f 54/4/2 66/5/2 68/6/2
f 53/7/3 65/8/3 70/9/3
f 53/10/4 70/11/4 72/12/4
f 53/13/5 72/14/5 69/15/5
f 54/4/6 68/6/6 75/16/6
f 55/17/7 67/18/7 77/19/7
f 56/20/8 71/21/8 79/22/8
f 57/23/9 73/24/9 81/25/9
f 58/26/10 74/27/10 83/28/10
f 54/4/11 75/16/11 78/29/11
f 55/17/12 77/19/12 80/30/12
f 56/20/13 79/22/13 82/31/13
f 57/23/14 81/25/14 84/32/14
f 58/26/15 83/28/15 76/33/15
f 59/34/16 85/35/16 90/36/16
f 60/37/17 86/38/17 92/39/17
f 61/40/18 87/41/18 93/42/18
f 62/43/19 88/44/19 94/45/19
f 63/46/20 89/47/20 91/48/20
f 91/48/21 94/49/21 64/50/21
f 91/48/22 89/47/22 94/49/22
f 89/47/23 62/43/23 94/49/23
f 94/45/24 93/51/24 64/52/24
f 94/45/25 88/44/25 93/51/25
f 88/44/26 61/40/26 93/51/26
f 93/42/27 92/53/27 64/54/27
f 93/42/28 87/41/28 92/53/28
f 87/41/29 60/55/29 92/53/29
f 92/39/30 90/56/30 64/57/30
f 92/39/31 86/38/31 90/56/31
f 86/38/32 59/34/32 90/56/32
f 90/36/33 91/58/33 64/59/33
f 90/36/34 85/35/34 91/58/34
f 85/35/35 63/46/35 91/58/35
f 76/33/36 89/47/36 63/46/36
f 76/33/37 83/28/37 89/47/37
f 83/28/38 62/43/38 89/47/38
f 84/32/39 88/44/39 62/43/39
f 84/32/40 81/25/40 88/44/40
f 81/25/41 61/40/41 88/44/41
f 82/31/42 87/41/42 61/40/42
f 82/31/43 79/22/43 87/41/43
f 79/22/44 60/55/44 87/41/44
f 80/30/45 86/38/45 60/37/45
f 80/30/46 77/19/46 86/38/46
f 77/19/47 59/34/47 86/38/47
f 78/29/48 85/35/48 59/34/48
f 78/29/49 75/16/49 85/35/49
f 75/16/50 63/46/50 85/35/50
f 83/28/51 84/32/51 62/43/51
f 83/28/52 74/27/52 84/32/52
f 74/27/53 57/23/53 84/32/53
f 81/25/54 82/31/54 61/40/54
f 81/25/55 73/24/55 82/31/55
f 73/24/56 56/20/56 82/31/56
f 79/22/57 80/60/57 60/55/57
f 79/22/58 71/21/58 80/60/58
f 71/21/59 55/61/59 80/60/59
f 77/19/60 78/29/60 59/34/60
f 77/19/61 67/18/61 78/29/61
f 67/18/62 54/4/62 78/29/62
f 75/16/63 76/33/63 63/46/63
f 75/16/64 68/6/64 76/33/64
f 68/6/65 58/26/65 76/33/65
f 69/15/66 74/27/66 58/26/66
f 69/15/67 72/14/67 74/27/67
f 72/14/68 57/23/68 74/27/68
f 72/12/69 73/24/69 57/23/69
f 72/12/70 70/11/70 73/24/70
f 70/11/71 56/20/71 73/24/71
f 70/9/72 71/21/72 56/20/72
f 70/9/73 65/8/73 71/21/73
f 65/8/74 55/61/74 71/21/74
f 68/6/75 69/62/75 58/26/75
f 68/6/76 66/5/76 69/62/76
f 66/5/77 53/63/77 69/62/77
f 65/3/78 67/18/78 55/17/78
f 65/3/79 66/2/79 67/18/79
f 66/2/80 54/4/80 67/18/80
s 1
f 1/64/81 2/65/81 3/66/81 4/67/81
f 4/67/82 3/66/82 5/68/82 6/69/82
f 6/69/83 5/68/83 7/70/83 8/71/83
f 8/71/84 7/70/84 9/72/84 10/73/84
f 10/73/85 9/72/85 11/74/85 12/75/85
f 12/75/86 11/74/86 13/76/86 14/77/86
f 14/77/87 13/76/87 15/78/87 16/79/87
f 16/79/88 15/78/88 17/80/88 18/81/88
f 18/81/89 17/80/89 19/82/89 20/83/89
f 20/83/90 19/82/90 21/84/90 22/85/90
f 22/85/91 21/84/91 23/86/91 24/87/91
f 24/87/92 23/86/92 25/88/92 26/89/92
f 26/89/93 25/88/93 2/90/93 1/91/93
f 27/92/94 28/93/94 29/94/94 30/95/94 31/96/94 32/97/94 33/98/94 34/99/94 35/100/94 36/101/94 37/102/94 38/103/94 39/104/94
f 39/105/95 40/106/95 41/107/95 27/108/95
f 38/109/96 42/110/96 40/106/96 39/105/96
f 37/111/97 43/112/97 42/110/97 38/109/97
f 36/113/98 44/114/98 43/112/98 37/111/98
f 35/115/99 45/116/99 44/114/99 36/113/99
f 34/117/100 46/118/100 45/116/100 35/115/100
f 33/119/101 47/120/101 46/118/101 34/117/101
f 32/121/102 48/122/102 47/120/102 33/119/102
f 31/123/103 49/124/103 48/122/103 32/121/103
f 30/125/104 50/126/104 49/124/104 31/123/104
f 29/127/105 51/128/105 50/126/105 30/125/105
f 28/129/106 52/130/106 51/128/106 29/127/106
f 27/131/107 41/132/107 52/130/107 28/129/107
f 40/106/108 26/89/108 1/91/108 41/107/108
f 42/110/109 24/87/109 26/89/109 40/106/109
f 43/112/110 22/85/110 24/87/110 42/110/110
f 44/114/111 20/83/111 22/85/111 43/112/111
f 45/116/112 18/81/112 20/83/112 44/114/112
f 46/118/113 16/79/113 18/81/113 45/116/113
f 47/120/114 14/77/114 16/79/114 46/118/114
f 48/122/115 12/75/115 14/77/115 47/120/115
f 49/124/116 10/73/116 12/75/116 48/122/116
f 50/126/117 8/71/117 10/73/117 49/124/117
f 51/128/118 6/69/118 8/71/118 50/126/118
f 52/130/119 4/67/119 6/69/119 51/128/119
f 41/132/120 1/64/120 4/67/120 52/130/120
f 23/133/121 21/134/122 19/135/123 17/136/124 15/137/124 13/138/125 11/139/126 9/140/127 7/141/128 5/142/129 3/143/130 2/144/131 25/145/132
